PathFileType	4	(X/Y/Z)	7_coords_data.trc
DataRate	CameraRate	NumFrames	NumMarkers	Units	OrigDataRate	OrigDataStartFrame	OrigNumFrames
30.0	30.0	6	21	m	30.0	21	62
Frame#	Time	THUMB_TIP	THUMB_IP	THUMB_MCP	THUMB_CMC	INDEX_TIP	INDEX_DIP	INDEX_PIP	INDEX_MCP	MIDDLE_TIP	MIDDLE_DIP	MIDDLE_PIP	MIDDLE_MCP	RING_TIP	RING_DIP	RING_PIP	RING_MCP	PINKY_TIP	PINKY_DIP	PINKY_PIP	PINKY_MCP	WRIST
X1	Y1	Z1	X2	Y2	Z2	X3	Y3	Z3	X4	Y4	Z4	X5	Y5	Z5	X6	Y6	Z6	X7	Y7	Z7	X8	Y8	Z8	X9	Y9	Z9	X10	Y10	Z10	X11	Y11	Z11	X12	Y12	Z12	X13	Y13	Z13	X14	Y14	Z14	X15	Y15	Z15	X16	Y16	Z16	X17	Y17	Z17	X18	Y18	Z18	X19	Y19	Z19	X20	Y20	Z20	X21	Y21	Z21
19	0.6666666666666637	0.47179735249385757	-0.015319979344286305	-0.169318118979208	0.4796994590144181	-0.019377585886147908	-0.1481263153351301	0.4758728039522853	-0.031484023831024555	-0.11970782010187919	0.47688563478645646	-0.031546251598688624	-0.07511118007814765	0.5049779169088431	-0.01870977880338176	-0.10615733264793259	0.5229327132283774	-0.01734060967314588	-0.10809399602003533	0.5349260290909377	0.0012926169847660152	-0.11996720417687923	0.4940388338490483	0.013088502599395646	-0.12161960903592339	0.5040314074909709	-0.020081064886440125	-0.08783264788909662	0.521660915159928	-0.016061837919158384	-0.08680977256157174	0.5393997050967033	0.005249541994786	-0.09578585008699947	0.5015799022323464	0.02828765439703529	-0.10170664473320223	0.5031311733998414	-0.007895928611068137	-0.07358466548736264	0.5207292057744737	-0.0049226212154891424	-0.07104130163749933	0.5372672708373716	0.013371417987054324	-0.07450547724378143	0.5056985328907764	0.03788448235483366	-0.0806083694892924	0.5043840993425746	-0.007328083315692124	-0.05554552338250429	0.5211118676704711	-0.005325004703530034	-0.05251741459289305	0.5328284932762898	0.012081108470174517	-0.053265697692571834	0.5062330110504583	0.03613933473757425	-0.05710829122325989	0.4622830810018609	-0.023011742144276925	-0.051989820119430985
20	0.6999999999999968	0.47199500372333136	-0.01528914767801337	-0.16928816511130185	0.47988565843763403	-0.01936155481204971	-0.14809493344847358	0.4759857769316841	-0.031477058820673864	-0.11969025976866232	0.476914758431294	-0.031548829272442735	-0.07509180864784837	0.5050032327754339	-0.018803965320049354	-0.10608972405811867	0.5229609802925725	-0.017455433332285164	-0.10801346145929314	0.5349983149525905	0.0011485452101329674	-0.11988798838359516	0.49414213408713176	0.013043601454875597	-0.12159568157130118	0.5040877823086907	-0.020124719642001243	-0.0877733861605785	0.5217197785662402	-0.01611849401087606	-0.0867424331227189	0.5394634864547524	0.005181885531437835	-0.0957348861651609	0.5016622948772684	0.028242089091582323	-0.10168844376436692	0.5031583747394108	-0.00790093761130195	-0.07358060486418683	0.5207582401895191	-0.0049984427694469424	-0.0709690421459871	0.53728813502511	0.013302912099641406	-0.07443357179371735	0.5057578553783815	0.03785352404183395	-0.08058416141284963	0.5044019778411534	-0.007352372025489218	-0.055536341633457775	0.521122468356032	-0.005374882329952757	-0.052451745801601835	0.5328423698577288	0.012029872419143772	-0.053180058862259405	0.5062749619191254	0.03611138444473505	-0.057070696982817415	0.46228308100186094	-0.023011742144276925	-0.051989820119430985
21	0.7333333333333302	0.4721807919286355	-0.015300011943817693	-0.1692620365623677	0.4800644197768643	-0.01937786411092257	-0.14806723687815582	0.47609100414928845	-0.03149100757800627	-0.11967174914513057	0.4769422559430461	-0.03155594803324335	-0.07507173621776808	0.5050320383362303	-0.018896883930947683	-0.10602288275935356	0.5229958275031429	-0.017589345538449597	-0.1079183041159012	0.535077326730524	0.0009838622672079245	-0.11979614740610545	0.49425391531613394	0.012980234680753155	-0.12157722107302182	0.5041245462417417	-0.020203807288509457	-0.08769725389751482	0.521759127898963	-0.01620946430014325	-0.08666441612415143	0.5395183714132696	0.005075981025115639	-0.0956615621774829	0.5017541929690518	0.02818009049569914	-0.10167944162165399	0.5031796494829603	-0.00793859027507382	-0.07356724984899854	0.5207780029505248	-0.005068269882647858	-0.07091033131891722	0.5373117103743343	0.013229590659834645	-0.07437512530871337	0.5058175288741775	0.03781290468978282	-0.08057980394182018	0.504393197207013	-0.007384188537162606	-0.05552493651611212	0.5211087823435183	-0.005450503489745406	-0.052386453493752705	0.5328338263716835	0.011951604221229428	-0.05309497925420026	0.5063192732598185	0.03607943084736065	-0.057058551705594485	0.46228308100186094	-0.023011742144276925	-0.051989820119430985
22	0.7666666666666633	0.4723698621920767	-0.015326254211490142	-0.1692344789276773	0.48024100388582713	-0.01940129338052532	-0.14803449816806968	0.4761964971050157	-0.03150721490068964	-0.11964596828278684	0.4769791004029726	-0.03156567399772403	-0.07504468898934069	0.5050789577874755	-0.019016730264079462	-0.10594562217383419	0.5230421186287564	-0.017701484449034743	-0.10784166569556031	0.5351690133859671	0.0008428706170335865	-0.11971832986236752	0.4943694670901495	0.012911104411968632	-0.12155975570291211	0.5041735316057047	-0.02030209768237612	-0.08760199930128776	0.5218063058651825	-0.016295798918080973	-0.08658472739786216	0.5395803721228579	0.00497464654061508	-0.09558807503395839	0.5018499280737839	0.028117721307803323	-0.10166751605925328	0.5032164717931364	-0.00793967149352115	-0.07356272275375197	0.5208150155615386	-0.005137420355585842	-0.07083533466409997	0.5373466998766829	0.013161543310858836	-0.07430395419332969	0.5058844508294615	0.037770883321900595	-0.08056718843065214	0.5044214128781118	-0.007456822977196409	-0.05549472991475812	0.5211300682106585	-0.005496902033681805	-0.052335687833156674	0.5328579927137861	0.011904120098298554	-0.05302288111839448	0.5063649478093215	0.036047210978507715	-0.05703700436512993	0.4622830810018609	-0.023011742144276925	-0.051989820119430985
23	0.7999999999999965	0.47254687581865684	-0.015375882778140504	-0.16920308009781415	0.48040570942608074	-0.019444294598476297	-0.14799726109474387	0.47629228529920375	-0.03154285286985303	-0.11961549529861115	0.47701145207194	-0.03159495455400907	-0.07501314015263816	0.5051024311254035	-0.019113738189408758	-0.10587057333588301	0.5230672963571577	-0.017813392649391857	-0.1077607370011433	0.5352456055256305	0.0006974066143579094	-0.11963713920948305	0.4944721396050241	0.01284281248121133	-0.12154755464874134	0.5042353507115671	-0.020365394581575047	-0.087523149955685	0.5218669595372687	-0.01635140516552025	-0.08651604559900716	0.53965272689056	0.004902353577922347	-0.09553567801558238	0.5019378228209701	0.028059677840676756	-0.10165713740132454	0.5032279211985804	-0.007992293496003944	-0.07352180061692015	0.5208229191371324	-0.005196478258896353	-0.0707650879546522	0.5373779280567921	0.013083251080376002	-0.07422386721227092	0.5059565854088541	0.03773063756989603	-0.08054260121815371	0.5044338902542592	-0.007440509337670376	-0.055482753403728324	0.5211415242655035	-0.0055643356352648166	-0.05226795356785785	0.5328719326090354	0.011836375604100335	-0.052919710775894746	0.5064178511159202	0.03601059790400174	-0.057002846770516924	0.46228308100186083	-0.023011742144276925	-0.051989820119430985
24	0.8333333333333297	0.472687305540396	-0.01541521127986234	-0.16918477217818384	0.4805410063440499	-0.019476349135549298	-0.14797565755725284	0.4763679825481822	-0.031564350533042074	-0.11959809433182189	0.47703185371740514	-0.031608888676588176	-0.07499487369222624	0.5051170451920479	-0.019217523425600236	-0.10581121564740992	0.5230835879587028	-0.017928579902960484	-0.10769322670194803	0.5353167840104507	0.0005500244138088028	-0.11956335432821119	0.49456764728508484	0.012765799782852971	-0.12154294576850999	0.5042305871131041	-0.020456341055526628	-0.08744289146449857	0.5218642776907969	-0.01644647736815419	-0.08645600250474739	0.5396870179586268	0.004774363394996373	-0.09548015878943539	0.5020198532433643	0.02799406493570533	-0.1016590004020419	0.5032469500311485	-0.008015571975413915	-0.07350999507844314	0.5208434984304542	-0.005268542028222467	-0.07071440732268797	0.537411195271708	0.01299947416087499	-0.07417431843298916	0.5060249003140778	0.03767543438209264	-0.08055540846475706	0.5044252596496323	-0.007490150289008457	-0.055509064597253466	0.5211271560778434	-0.005660324431424502	-0.05223822479190965	0.5328661212106995	0.01173602454898448	-0.052851216440640725	0.5064755054064426	0.03596701132209812	-0.057007913263034005	0.4622830810018609	-0.023011742144276925	-0.051989820119430985
